<?xml version="1.0" encoding="UTF-8" standalone="no"?>
<!-- Created with Inkscape (http://www.inkscape.org/) -->

<svg
   width="4.2333388mm"
   height="4.2333403mm"
   viewBox="0 0 4.2333388 4.2333403"
   version="1.1"
   id="svg1"
   xmlns="http://www.w3.org/2000/svg"
   xmlns:svg="http://www.w3.org/2000/svg">
  <defs
     id="defs1">
    <clipPath
       clipPathUnits="userSpaceOnUse"
       id="clipPath2">
      <path
         d="M 0,1382.723 H 1394.072 V 0 H 0 Z"
         transform="translate(-1360.0704,-701.11772)"
         id="path2" />
    </clipPath>
    <clipPath
       clipPathUnits="userSpaceOnUse"
       id="clipPath4">
      <path
         d="M 0,1382.723 H 1394.072 V 0 H 0 Z"
         transform="translate(-37.993601,-659.36082)"
         id="path4" />
    </clipPath>
    <clipPath
       clipPathUnits="userSpaceOnUse"
       id="clipPath6">
      <path
         d="M 0,1382.723 H 1394.072 V 0 H 0 Z"
         transform="translate(-1360.0704,-701.11772)"
         id="path6" />
    </clipPath>
    <clipPath
       clipPathUnits="userSpaceOnUse"
       id="clipPath8">
      <path
         d="M 0,1382.723 H 1394.072 V 0 H 0 Z"
         transform="translate(-739.70122,-659.36082)"
         id="path8" />
    </clipPath>
    <clipPath
       clipPathUnits="userSpaceOnUse"
       id="clipPath10">
      <path
         d="M 0,1382.723 H 1394.072 V 0 H 0 Z"
         transform="translate(-697.66802,-1177.8345)"
         id="path10" />
    </clipPath>
    <clipPath
       clipPathUnits="userSpaceOnUse"
       id="clipPath12">
      <path
         d="M 0,1382.723 H 1394.072 V 0 H 0 Z"
         transform="translate(-697.48292,-1363.4971)"
         id="path12" />
    </clipPath>
    <clipPath
       clipPathUnits="userSpaceOnUse"
       id="clipPath14">
      <path
         d="M 0,1382.723 H 1394.072 V 0 H 0 Z"
         transform="translate(-1084.1016,-926.01562)"
         id="path14" />
    </clipPath>
    <clipPath
       clipPathUnits="userSpaceOnUse"
       id="clipPath16">
      <path
         d="M 0,1382.723 H 1394.072 V 0 H 0 Z"
         transform="translate(-1145.628,-1188.3921)"
         id="path16" />
    </clipPath>
    <clipPath
       clipPathUnits="userSpaceOnUse"
       id="clipPath18">
      <path
         d="M 0,1382.723 H 1394.072 V 0 H 0 Z"
         transform="translate(-944.9053,-1181.6133)"
         id="path18" />
    </clipPath>
    <clipPath
       clipPathUnits="userSpaceOnUse"
       id="clipPath20">
      <path
         d="M 0,1382.723 H 1394.072 V 0 H 0 Z"
         transform="translate(-1340.5704,-858.40482)"
         id="path20" />
    </clipPath>
    <clipPath
       clipPathUnits="userSpaceOnUse"
       id="clipPath22">
      <path
         d="M 0,1382.723 H 1394.072 V 0 H 0 Z"
         transform="translate(-1194.1788,-711.52882)"
         id="path22" />
    </clipPath>
    <clipPath
       clipPathUnits="userSpaceOnUse"
       id="clipPath24">
      <path
         d="M 0,1382.723 H 1394.072 V 0 H 0 Z"
         transform="translate(-428.67041,-1305.6738)"
         id="path24" />
    </clipPath>
    <clipPath
       clipPathUnits="userSpaceOnUse"
       id="clipPath26">
      <path
         d="M 0,1382.723 H 1394.072 V 0 H 0 Z"
         transform="translate(-966.14162,-1306.2871)"
         id="path26" />
    </clipPath>
    <clipPath
       clipPathUnits="userSpaceOnUse"
       id="clipPath28">
      <path
         d="M 0,1382.723 H 1394.072 V 0 H 0 Z"
         transform="translate(-313.91791,-928.98242)"
         id="path28" />
    </clipPath>
    <clipPath
       clipPathUnits="userSpaceOnUse"
       id="clipPath30">
      <path
         d="M 0,1382.723 H 1394.072 V 0 H 0 Z"
         transform="translate(-252.74311,-1189.9653)"
         id="path30" />
    </clipPath>
    <clipPath
       clipPathUnits="userSpaceOnUse"
       id="clipPath32">
      <path
         d="M 0,1382.723 H 1394.072 V 0 H 0 Z"
         transform="translate(-453.11331,-1184.5801)"
         id="path32" />
    </clipPath>
    <clipPath
       clipPathUnits="userSpaceOnUse"
       id="clipPath34">
      <path
         d="M 0,1382.723 H 1394.072 V 0 H 0 Z"
         transform="translate(-56.109301,-860.78322)"
         id="path34" />
    </clipPath>
    <clipPath
       clipPathUnits="userSpaceOnUse"
       id="clipPath36">
      <path
         d="M 0,1382.723 H 1394.072 V 0 H 0 Z"
         transform="translate(-203.84031,-712.73682)"
         id="path36" />
    </clipPath>
    <clipPath
       clipPathUnits="userSpaceOnUse"
       id="clipPath38">
      <path
         d="M 0,1382.723 H 1394.072 V 0 H 0 Z"
         transform="translate(-1293.0391,-818.03472)"
         id="path38" />
    </clipPath>
    <clipPath
       clipPathUnits="userSpaceOnUse"
       id="clipPath40">
      <path
         d="M 0,1382.723 H 1394.072 V 0 H 0 Z"
         transform="translate(-100.24701,-521.46344)"
         id="path40" />
    </clipPath>
  </defs>
  <g
     id="layer1"
     transform="translate(-101.07082,-113.77082)">
    <path
       id="path1"
       d="m 0,0 c 0,-365.536 -296.245,-661.861 -661.682,-661.861 -365.437,0 -661.682,296.325 -661.682,661.861 0,365.536 296.245,661.861 661.682,661.861 C -296.245,661.861 0,365.536 0,0"
       style="fill:#ffffff;fill-opacity:1;fill-rule:nonzero;stroke:none"
       transform="matrix(0.00278852,0,0,-0.00278852,105.03259,115.88749)"
       clip-path="url(#clipPath2)" />
    <path
       id="path3"
       d="M 0,0 H 1320.786 V 0 C 1299.323,-346.057 1011.86,-620.079 660.395,-620.079 308.931,-620.079 21.468,-346.057 0,0"
       style="fill:#000000;fill-opacity:1;fill-rule:nonzero;stroke:none"
       transform="matrix(0.00278852,0,0,-0.00278852,101.34597,116.00393)"
       clip-path="url(#clipPath4)" />
    <path
       id="path5"
       d="m 0,0 c 0.503,-365.437 -296.244,-661.682 -661.682,-661.682 -365.437,0 -661.682,296.245 -661.682,661.682 0,365.437 296.246,661.018 661.682,661.682 C -298.21,662.341 -0.504,365.606 0,0 Z"
       style="fill:none;stroke:#000000;stroke-width:5;stroke-linecap:butt;stroke-linejoin:miter;stroke-miterlimit:10;stroke-dasharray:none;stroke-opacity:1"
       transform="matrix(0.00278852,0,0,-0.00278852,105.03259,115.88749)"
       clip-path="url(#clipPath6)" />
    <path
       id="path7"
       d="m 0,0 c 1.233,-78.932 96.981,-86.503 156.357,-113.954 62.466,-28.88 137.467,-45.646 205.607,-29.553 18.945,4.474 37.208,11.537 56.182,15.886 52.641,12.066 124.187,5.88 159.281,-40.124 -2.314,3.033 -16.74,6.875 -20.157,7.954 -13.103,4.139 -23.359,7.419 -36.73,10.548 -28.891,6.763 -59.63,9.784 -88.763,1.397 -20.133,-5.797 -38.607,-17.862 -59.486,-19.621 6.039,0.509 17.476,-7.235 22.782,-9.98 8.232,-4.257 16.157,-9.102 23.717,-14.46 14.738,-10.447 28.081,-22.854 39.626,-36.745 23.424,-28.187 40.064,-64.76 45.279,-100.98 -0.364,2.535 -6.987,10.105 -8.539,11.957 -6.649,7.94 -13.652,15.589 -20.871,23.012 -23.504,24.168 -49.554,46.017 -77.847,64.376 -24.834,16.113 -51.526,29.537 -79.704,38.725 -14.799,4.827 -29.987,8.479 -45.392,10.739 -13.241,1.941 -36.514,7.024 -48.828,1.541 3.405,-7.343 16.524,-14.72 22.768,-20.689 8.289,-7.923 16.118,-16.336 23.301,-25.273 15.647,-19.469 18.889,-23.914 31.691,-48.519 1.48,-2.843 9.555,-20.855 10.646,-23.869 0.9,-2.489 10.645,-19.506 12.101,-21.716 15.445,-23.44 25.352,-36.046 50.625,-49.294 -4.386,2.299 -11.187,2.6 -15.962,4.279 -13.71,4.821 -26.604,11.985 -38.221,20.687 -37.553,28.127 -55.3,73.35 -85.698,108.148 -21.513,24.626 -44.818,49.466 -75.296,61.313 -24.783,9.633 -51.728,9.741 -77.71,13.554 -22.136,3.248 -59.455,8.358 -77.15,23.047 -0.966,0.802 0.842,-18.532 -0.123,-27.258 -1.451,-13.125 1.157,-23.208 1.157,-23.208 3.815,-30.303 14.249,-55.484 33.811,-78.381 21.702,-25.4 47.99,-46.298 74.586,-66.518 4.544,-3.474 7.836,-6.656 23.856,-12.191 15.609,-5.392 30.85,-6.961 47.198,-6.853 47.175,0.309 130.153,-10.163 150.531,-61.676 0,0 -62.646,53.521 -147.869,41.966 0,0 118.678,-34.88 122.519,-116.731 -1.064,22.682 -26.668,40.472 -41.88,53.132 -17.828,14.835 -39.567,22.695 -61.899,30.271 -23.597,8.005 -51.885,13.669 -73.112,26.906 -29.425,18.347 -51.865,39.059 -77.685,61.228 -20.572,17.663 -45.968,35.624 -59.339,59.904 0,0 -2.749,1.452 -4.698,-12.692 l -14.143,-132.407 c 0,0 -0.63,-6.883 6.546,-18.079 l 27.488,-40.776 c 0.028,-0.043 -6.86,8.36 0.104,-0.098 7.144,-8.676 17.427,-15.295 24.961,-20.156 0,0 77.144,-48.609 87.644,-111.197 0,0 -30.436,54.113 -93.376,85.807 0,0 -59.517,26.962 -63.79,48.001 0,0 -8.202,-55.506 -4.888,-65.203 2.086,-6.101 15.046,-60.923 69.059,-84.529 0,0 -24.994,-8.169 -69.808,51.785 0,0 -2.082,-60.737 -6.52,-62.916 l -0.718,-0.103 c -4.408,2.243 -4.761,66.769 -4.761,66.769 -25.697,-57.872 -70.553,-55.805 -70.979,-55.996 54.344,22.833 65.116,76.565 66.602,82.838 2.593,10.941 -4.257,65.473 -4.257,65.473 -4.573,-20.977 -65.218,-44.382 -65.218,-44.382 -55.548,-23.421 -92.964,-85.843 -92.964,-85.843 13.641,65.911 87.599,110.652 87.599,110.652 10.736,7.945 23.087,15.383 26.993,19.823 0.012,0.013 6.889,7.68 6.898,7.693 l 20.301,28.129 c 7.682,12.223 6.945,22.315 6.945,22.315 l -12.647,129.573 c -3.004,22.88 -5.279,14.051 -5.279,14.051 -13.715,-24.087 -38.463,-44.446 -59.286,-61.815 -26.132,-21.798 -56.661,-40.508 -86.345,-58.434 -21.413,-12.932 -45.309,-18.653 -69.018,-26.321 -22.438,-7.257 -36.569,-19.088 -56.789,-31.374 -16.914,-10.277 -43.422,-28.74 -44.809,-51.404 -3.713,67.395 124.138,114.614 124.138,114.614 -85.051,12.77 -148.452,-39.854 -148.452,-39.854 21.109,51.218 104.229,60.507 151.394,59.524 16.345,-0.34 31.607,1.011 47.29,6.181 16.098,5.307 19.435,8.44 24.028,11.85 26.881,19.838 53.465,40.359 75.526,65.448 19.887,22.616 31.633,50.309 35.881,80.555 1.689,12.032 2.374,7.105 1.36,24.65 -0.517,8.94 -0.837,25.999 -1.984,25.487 -23.831,-10.645 -53.869,-21.368 -76.049,-24.3 -26.034,-3.442 -52.978,-3.166 -77.896,-12.445 -30.643,-11.411 -54.3,-35.918 -76.162,-60.235 -30.891,-34.361 -49.28,-79.326 -87.23,-106.915 -11.74,-8.535 -24.734,-15.515 -38.512,-20.141 -4.798,-1.61 -11.603,-1.813 -16.021,-4.05 25.458,12.886 37.923,25.975 53.699,49.193 0,0 9.32,16.275 10.256,18.752 1.133,2.998 12.998,27.713 14.571,30.506 13.494,23.956 12.071,23.124 27.779,41.921 7.352,8.798 16.048,18.649 24.448,26.452 6.329,5.879 19.552,13.069 23.062,20.363 -12.235,5.658 -35.578,0.907 -48.846,-0.846 -15.435,-2.039 -30.674,-5.475 -45.54,-10.09 -28.306,-8.786 -55.187,-21.828 -80.248,-37.586 -28.552,-17.953 -54.91,-39.429 -78.756,-63.259 -7.324,-7.321 -12.78,-12.143 -19.542,-19.987 -1.578,-1.83 -7.523,-6.926 -7.924,-9.455 5.73,36.142 20.451,67.368 44.274,95.219 11.741,13.726 25.26,25.941 40.145,36.177 7.636,5.25 15.63,9.981 23.92,14.121 5.347,2.669 16.891,10.249 22.923,9.654 -20.851,2.056 -39.152,14.384 -59.201,20.467 -29.01,8.801 -61.446,7.475 -90.43,1.126 -13.414,-2.939 -21.933,-5.278 -35.093,-9.23 -3.432,-1.03 -18.038,-6.718 -20.395,-9.717 35.746,45.498 107.373,50.665 159.837,37.849 18.909,-4.619 37.07,-11.941 55.949,-16.684 67.904,-17.063 143.136,-1.368 206.008,26.62 59.76,26.601 156.117,34.951 162.757,115.904 L 0,0"
       style="fill:#ffffff;fill-opacity:1;fill-rule:nonzero;stroke:none"
       transform="matrix(0.00278852,0,0,-0.00278852,103.3027,116.00393)"
       clip-path="url(#clipPath8)" />
    <path
       id="path9"
       d="M 0,0 C -41.782,-182.991 -40.795,-518.474 -40.795,-518.474 H 42.19 c 0,0 -0.409,335.424 -42.19,518.414"
       style="fill:#231f20;fill-opacity:1;fill-rule:nonzero;stroke:none"
       transform="matrix(0.00278852,0,0,-0.00278852,103.18548,114.55816)"
       clip-path="url(#clipPath10)" />
    <path
       id="path11"
       d="m 0,0 c -79.669,-117.214 -3.011,-196.624 -3.011,-196.624 h 6.022 c 0,0 76.658,79.41 -3.011,196.624"
       style="fill:#231f20;fill-opacity:1;fill-rule:nonzero;stroke:none"
       transform="matrix(0.00278852,0,0,-0.00278852,103.18496,114.04044)"
       clip-path="url(#clipPath12)" />
    <path
       id="path13"
       d="m 0,0 c -110.523,-81.87 -348.139,-158.394 -348.139,-158.394 l -19.728,55.658 c 0,0 226.705,103.998 364.116,110.012"
       style="fill:#231f20;fill-opacity:1;fill-rule:nonzero;stroke:none"
       transform="matrix(0.00278852,0,0,-0.00278852,104.26306,115.26036)"
       clip-path="url(#clipPath14)" />
    <path
       id="path15"
       d="m 0,0 c 61.932,-178.181 -64.767,-256.715 -64.767,-256.715 l -7.034,0.79 c 0,0 -71.084,132.766 71.801,255.925"
       style="fill:#231f20;fill-opacity:1;fill-rule:nonzero;stroke:none"
       transform="matrix(0.00278852,0,0,-0.00278852,104.43462,114.52873)"
       clip-path="url(#clipPath16)" />
    <path
       id="path17"
       d="m 0,0 c 85.703,-195.821 -50.086,-293.361 -50.086,-293.361 l -5.425,-1.07 c 0,0 -95.027,142.678 55.511,294.431"
       style="fill:#231f20;fill-opacity:1;fill-rule:nonzero;stroke:none"
       transform="matrix(0.00278852,0,0,-0.00278852,103.87491,114.54763)"
       clip-path="url(#clipPath18)" />
    <path
       id="path19"
       d="m 0,0 c -123.179,142.867 -258.95,73.587 -258.95,73.587 l -4.172,-5.063 c 0,0 84.95,-130.482 263.122,-68.524"
       style="fill:#231f20;fill-opacity:1;fill-rule:nonzero;stroke:none"
       transform="matrix(0.00278852,0,0,-0.00278852,104.97822,115.4489)"
       clip-path="url(#clipPath20)" />
    <path
       id="path21"
       d="m 0,0 c -124.475,186.762 -290.854,120.41 -290.854,120.41 l -2.25,-1.166 c 0,0 73.64,-166.253 293.104,-119.244"
       style="fill:#231f20;fill-opacity:1;fill-rule:nonzero;stroke:none"
       transform="matrix(0.00278852,0,0,-0.00278852,104.57001,115.85846)"
       clip-path="url(#clipPath22)" />
    <path
       id="path23"
       d="m 0,0 c 68.777,-223.208 254.688,-207.645 254.688,-207.645 l 1.402,9.048 c 0,0 -23.236,180.404 -256.09,198.597"
       style="fill:#231f20;fill-opacity:1;fill-rule:nonzero;stroke:none"
       transform="matrix(0.00278852,0,0,-0.00278852,102.43538,114.20169)"
       clip-path="url(#clipPath24)" />
    <path
       id="path25"
       d="m 0,0 c -68.777,-223.208 -255.441,-208.258 -255.441,-208.258 l -1.402,9.048 c 0,0 23.989,181.017 256.843,199.21"
       style="fill:#231f20;fill-opacity:1;fill-rule:nonzero;stroke:none"
       transform="matrix(0.00278852,0,0,-0.00278852,103.93412,114.19997)"
       clip-path="url(#clipPath26)" />
    <path
       id="path27"
       d="m 0,0 c 110.523,-81.87 348.139,-158.394 348.139,-158.394 l 19.728,55.658 c 0,0 -226.705,103.998 -364.117,110.012"
       style="fill:#231f20;fill-opacity:1;fill-rule:nonzero;stroke:none"
       transform="matrix(0.00278852,0,0,-0.00278852,102.11538,115.25209)"
       clip-path="url(#clipPath28)" />
    <path
       id="path29"
       d="m 0,0 c -61.932,-178.181 64.415,-255.322 64.415,-255.322 l 7.034,0.79 c 0,0 71.436,131.373 -71.449,254.532"
       style="fill:#231f20;fill-opacity:1;fill-rule:nonzero;stroke:none"
       transform="matrix(0.00278852,0,0,-0.00278852,101.9448,114.52433)"
       clip-path="url(#clipPath30)" />
    <path
       id="path31"
       d="m 0,0 c -85.703,-195.821 61.291,-294.47 61.291,-294.47 l 7.349,-0.727 c 0,0 68.675,145.015 -68.64,295.197"
       style="fill:#231f20;fill-opacity:1;fill-rule:nonzero;stroke:none"
       transform="matrix(0.00278852,0,0,-0.00278852,102.50354,114.53936)"
       clip-path="url(#clipPath32)" />
    <path
       id="path33"
       d="m 0,0 c 123.179,142.867 260.29,74.176 260.29,74.176 l 4.171,-5.064 C 264.461,69.112 178.172,-61.958 0,0"
       style="fill:#231f20;fill-opacity:1;fill-rule:nonzero;stroke:none"
       transform="matrix(0.00278852,0,0,-0.00278852,101.39648,115.44227)"
       clip-path="url(#clipPath34)" />
    <path
       id="path35"
       d="m 0,0 c 124.475,186.762 291.028,120.95 291.028,120.95 l 2.334,-1.359 C 293.362,119.591 201.484,-40.398 0,0"
       style="fill:#231f20;fill-opacity:1;fill-rule:nonzero;stroke:none"
       transform="matrix(0.00278852,0,0,-0.00278852,101.80843,115.85509)"
       clip-path="url(#clipPath36)" />
    <path
       id="path37"
       d="m 0,0 h 37.139 l -0.748,-99.81 h 28.085 l -43.084,-57.785 -43.084,57.93 H 4.113 Z"
       style="fill:#231f20;fill-opacity:1;fill-rule:nonzero;stroke:none"
       transform="matrix(0.00278852,0,0,-0.00278852,104.84568,115.56147)"
       clip-path="url(#clipPath38)" />
    <path
       id="path39"
       d="m 0,0 -31.835,-0.57 -0.94,88.264 -24.075,-0.431 36.017,51.756 37.849,-50.561 -22.121,-0.396 z"
       style="fill:#ffffff;fill-opacity:1;fill-rule:nonzero;stroke:none"
       transform="matrix(0.00278852,0,0,-0.00278852,101.51956,116.38847)"
       clip-path="url(#clipPath40)" />
  </g>
</svg>
